<?xml version="1.0" encoding="utf-8"?>
<!-- Generator: Adobe Illustrator 19.1.0, SVG Export Plug-In . SVG Version: 6.00 Build 0)  -->
<svg version="1.1" id="Layer_1" xmlns="http://www.w3.org/2000/svg" xmlns:xlink="http://www.w3.org/1999/xlink" x="0px" y="0px"
	 viewBox="0 0 960 560" style="enable-background:new 0 0 960 560;" xml:space="preserve">
<style type="text/css">
	.st0{fill:#FFFFFF;}
</style>
<g>
	<path class="st0" d="M837,258.9L667.8,88.6l0,0C618.1,39,549.4,8.1,473.5,8.1l0,0v68.7c8.9,0,17.9,0.6,27.1,1.7
		c100.2,13.6,177.5,100.2,179.3,201.2C681.7,394.9,588.4,489,473.8,489c-113.7,0-206.1-92.4-206.1-206.1c0,0,0,0,0-0.3V100.2
		L110.4,258.6c-13.3,13.3-13.3,34.9,0,48.5l169.2,170.3v-0.3c49.7,49.9,118.6,80.8,194.6,80.8s144.6-30.9,194.3-80.5l0,0
		l169.2-170.3C850.2,293.9,850.2,272.5,837,258.9"/>
	<path class="st0" d="M404.5,17c-24.2,6.4-47.3,15.9-68.7,28.3v237.9l0,0c0,77.7,64.7,140.3,142.9,137.4
		c70.7-2.6,129.3-61.2,131.9-131.9c3.2-78.2-59.8-142.9-137.4-142.9c-25.1,0-48.5,6.9-68.7,18.5l0,0L404.5,17z M404.5,283.2
		L404.5,283.2c0-37.8,30.9-68.7,68.7-68.7c37.8,0,68.7,30.9,68.7,68.7c0,37.8-30.9,68.7-68.7,68.7S404.5,321,404.5,283.2
		L404.5,283.2z"/>
</g>
</svg>
